inDegrees=no
num_controls=7
num_derivatives=13
num_iterations=43
num_multipliers=7
num_parameters=0
num_slacks=7
num_states=26
objective=0.426424
objective_accelerations=0.060001
objective_balance=0.001169
objective_effort=0.015570
objective_height=0.343723
objective_ligament=0.005962
solver_duration=617.878344
status=Solve_Succeeded
success=true
DataType=double
version=3
OpenSimVersion=4.5
endheader
time	/jointset/ground_pelvis/pelvis_tilt/value	/jointset/ground_pelvis/pelvis_tx/value	/jointset/ground_pelvis/pelvis_ty/value	/jointset/hip_l/hip_flexion_l/value	/jointset/hip_l/hip_adduction_l/value	/jointset/hip_l/hip_rotation_l/value	/jointset/back/lumbar_extension/value	/jointset/patellofemoral_l/patellar_flexion_l/value	/jointset/knee_l/knee_flexion_l/value	/jointset/knee_l/knee_adduction_l/value	/jointset/knee_l/knee_rotation_l/value	/jointset/ankle_l/ankle_angle_l/value	/jointset/subtalar_l/subtalar_angle_l/value	/jointset/ground_pelvis/pelvis_tilt/speed	/jointset/ground_pelvis/pelvis_tx/speed	/jointset/ground_pelvis/pelvis_ty/speed	/jointset/hip_l/hip_flexion_l/speed	/jointset/hip_l/hip_adduction_l/speed	/jointset/hip_l/hip_rotation_l/speed	/jointset/back/lumbar_extension/speed	/jointset/patellofemoral_l/patellar_flexion_l/speed	/jointset/knee_l/knee_flexion_l/speed	/jointset/knee_l/knee_adduction_l/speed	/jointset/knee_l/knee_rotation_l/speed	/jointset/ankle_l/ankle_angle_l/speed	/jointset/subtalar_l/subtalar_angle_l/speed	/forceset/tau_hip_flexion_l	/forceset/tau_hip_adduction_l	/forceset/tau_hip_rotation_l	/forceset/tau_knee_flexion_l	/forceset/tau_ankle_angle_l	/forceset/tau_subtalar_angle_l	/forceset/tau_lumbar_extension	lambda_cid13_p0	lambda_cid13_p1	lambda_cid13_p2	lambda_cid13_p3	lambda_cid13_p4	lambda_cid13_p5	lambda_cid14_p0	/jointset/ground_pelvis/pelvis_tilt/accel	/jointset/ground_pelvis/pelvis_tx/accel	/jointset/ground_pelvis/pelvis_ty/accel	/jointset/hip_l/hip_flexion_l/accel	/jointset/hip_l/hip_adduction_l/accel	/jointset/hip_l/hip_rotation_l/accel	/jointset/back/lumbar_extension/accel	/jointset/patellofemoral_l/patellar_flexion_l/accel	/jointset/knee_l/knee_flexion_l/accel	/jointset/knee_l/knee_adduction_l/accel	/jointset/knee_l/knee_rotation_l/accel	/jointset/ankle_l/ankle_angle_l/accel	/jointset/subtalar_l/subtalar_angle_l/accel	gamma_cid13_p0	gamma_cid13_p1	gamma_cid13_p2	gamma_cid13_p3	gamma_cid13_p4	gamma_cid13_p5	gamma_cid14_p0
1	-0.4616327078880804	-0.004146238799969554	0.5858982842129086	1.731885015346589	-0.3445761315339496	0.1281072544476554	-0.436280402350502	1.528541942407793	1.52854194240779	0.07833320010090869	-0.1744819580675065	0.4353317217964038	0.2529564860490131	-0.1468820904938851	0.0007809315853199724	0.02498374675219924	0.05060438598545602	0.0008100589256192608	-0.04964007927011428	-0.000286018444368685	-0.1272157870264949	-0.1272157870265218	-3.954207253544103e-06	-1.708424007215037e-05	-0.04176181496580891	-0.02406953626464129	-0.2431101116373439	0.08139581394952321	-0.01749022231391749	-0.2926447536218154	-0.01840379936623466	-0.01265335196955182	0.2108011638120792	-41.86851863181206	23.43301371343316	-16.1323773450664	4.64062244763974	-544.7517562006867	-30.7068729931799	-0.0237023348321771	1.441333283004808	0.2258694258119134	2.064053710605464	-6.7421475878749	-0.2204962000437065	-1.500726051954541	-0.03524801364875173	-5.682384583322117	-5.682384583322147	-0.9579434968429802	-0.02978464847240261	-0.8753066051456697	-0.8845687550965556	1.144221812892893e-09	-1.226269536882037e-07	-8.501617279953449e-08	-1.003968942918142e-08	-5.167311943713751e-09	-1.909217782690243e-07	1.185653554494766e-08
1.01	-0.4630301276087895	-0.004127134024841455	0.5862511326109929	1.732054950172123	-0.3445785014745703	0.1275385585135175	-0.4362841382231389	1.526986045230801	1.526986045230802	0.07828335277005577	-0.1744821110484053	0.4348703025283265	0.2526724421656656	-0.1325884082403466	0.003046406465863983	0.04557901899316213	-0.01661476612313438	-0.001278547553916706	-0.06409133722651714	-0.0004634078057132997	-0.1839613803288883	-0.1839613803289008	-0.009962315759111787	-1.179898993169235e-05	-0.05053368398829307	-0.03273229344086995	-0.2435572797066665	0.08136565795858904	-0.01751744667872935	-0.2917251529050776	-0.01879919720388078	-0.01258776735333086	0.2110330564881221	-41.95238728324474	23.36603390917739	-16.06095339245534	4.561374366863185	-544.5958567157334	-30.64396077130926	-0.02371694569858207	1.425403547933773	0.2278399053310999	2.056225033797489	-6.711399791407556	-0.2021984087498003	-1.416160989856516	-0.009322155590876895	-5.67030965406889	-5.670309654066729	-1.014310656067639	0.01590560335987367	-0.8798809295956731	-0.85604517949976	2.089158844314145e-09	-1.703000978814657e-07	-1.247612648049459e-07	-2.023547430575108e-08	-9.289992826149628e-09	-2.587302605852162e-07	1.574491092050115e-08
1.02	-0.4642842069366798	-0.004085183823676963	0.5868097259420775	1.73155277332276	-0.344601588587354	0.1268255829353394	-0.4362897155410195	1.52486275953071	1.524862759530715	0.07813401618933942	-0.1744821670784812	0.4343208137942645	0.2523019875144328	-0.1182140119305918	0.005350016792598419	0.06613273335236193	-0.0838179489939859	-0.003333375507102842	-0.0784960080778532	-0.0006543074955964966	-0.2406934916461192	-0.2406934916461168	-0.01990180417938732	2.30592431163118e-06	-0.0593757081626121	-0.04135168984164861	-0.2440044477759896	0.08133550196764743	-0.01754467104355772	-0.29080555218834	-0.01919459504152729	-0.01252218273712197	0.2112649491641651	-42.03840620190923	23.2959271067074	-15.98502871542062	4.474196404047126	-544.5471720097005	-30.58976993110137	-0.0237342121849629	1.457476094248067	0.233496515050003	2.055742134252847	-6.73895374032713	-0.2137404947737425	-1.491408630941183	-0.03795007935633271	-5.679688186289614	-5.679688186289548	-0.9541688705264378	-0.02802071565182939	-0.8893376355126341	-0.8758966000065509	2.870900069412464e-09	-2.175380076729779e-07	-1.637638719190401e-07	-2.994308384028805e-08	-1.355775019103826e-08	-3.242142287881664e-07	1.941696303874198e-08
1.03	-0.4653940884295125	-0.004019962403430852	0.5875735747372386	1.730378750050559	-0.3446450350798573	0.1259687640440425	-0.4362971674365433	1.522172296339995	1.522172296340014	0.07788547701754919	-0.1744820494237228	0.4336824927650695	0.2518455725825757	-0.1037435659660279	0.007705125725816384	0.08662283225512103	-0.1509742458977854	-0.005348843573715069	-0.09285951812937443	-0.000828549718671729	-0.2973894267930455	-0.2973894267930763	-0.02979739555527362	2.108716725356661e-05	-0.06830613526979275	-0.04992321219330605	-0.2443041527429611	0.0813436861808426	-0.01753075439029103	-0.2896635413206485	-0.01956830556663984	-0.0124461336107643	0.211423305277302	-42.09570570932271	23.20668559185958	-15.89513236478925	4.355973263421301	-544.2484879167504	-30.51312103963397	-0.02375734264824811	1.444637673799725	0.2381388648900767	2.043511163312811	-6.702098046855219	-0.1943554797628173	-1.407586075899253	-0.006033009892570472	-5.663092862885735	-5.663092862890768	-1.005971761014064	0.01674866931618244	-0.8975518933736842	-0.8465009147569825	3.650976031180957e-09	-2.647714762971254e-07	-2.027589026566924e-07	-3.964571199378387e-08	-1.782698792819683e-08	-3.896744774593487e-07	2.308680777680615e-08
